<svg xmlns="http://www.w3.org/2000/svg" width="24" height="24" fill="none" viewBox="0 0 24 24">
  <path fill="currentColor" d="M6.315 6.176c-.25-.638-.24-1.367-.129-2.034a6.77 6.77 0 0 1 2.12 1.07c.28.214.647.283.99.18A9.343 9.343 0 0 1 12 5c.961 0 1.874.14 2.703.391.342.104.71.034.988-.18a6.77 6.77 0 0 1 2.12-1.07c.11.667.12 1.396-.129 2.033-.15.384-.075.826.208 1.14C18.614 8.117 19 9.04 19 10c0 2.114-1.97 4.187-5.134 4.818-.792.158-1.1 1.155-.495 1.726.39.366.63.882.63 1.456v3a1 1 0 0 0 2 0v-3c0-.57-.12-1.112-.335-1.603C18.683 15.35 21 12.993 21 10c0-1.347-.484-2.585-1.287-3.622.21-.82.191-1.646.111-2.28-.07-.568-.17-1.312-.57-1.756-.595-.659-1.58-.271-2.28-.032a9.082 9.082 0 0 0-2.125 1.045A11.431 11.431 0 0 0 12 3c-.994 0-1.953.125-2.85.356a9.08 9.08 0 0 0-2.126-1.045c-.7-.24-1.686-.628-2.28.031-.409.452-.494 1.137-.567 1.719l-.005.038c-.08.635-.098 1.462.112 2.283C3.484 7.418 3 8.654 3 10c0 2.992 2.317 5.35 5.334 6.397A3.985 3.985 0 0 0 8 17.98l-.168.034c-.717.1-1.176.01-1.488-.122-.76-.322-1.152-1.133-1.63-1.753-.298-.385-.732-.866-1.398-1.088a1 1 0 1 0-.632 1.898c.558.186.944 1.142 1.298 1.566.373.448.87.916 1.58 1.218.682.29 1.483.393 2.438.276V21a1 1 0 0 0 2 0v-3c0-.574.24-1.09.63-1.456.606-.572.296-1.568-.496-1.726C6.97 14.188 5 12.114 5 10c0-.958.385-1.881 1.108-2.684.283-.314.357-.756.207-1.14Z"/>
</svg>
