<svg xmlns="http://www.w3.org/2000/svg" width="24" height="24" fill="none" viewBox="0 0 24 24">
  <path stroke="currentColor" stroke-linecap="round" stroke-linejoin="round" stroke-width="2" d="M8 4h8a4 4 0 0 1 4 4v8a4 4 0 0 1-4 4H8a4 4 0 0 1-4-4V8a4 4 0 0 1 4-4Z"/>
  <path fill="currentColor" d="M8 10a1 1 0 0 1 .993.883L9 11v5a1 1 0 0 1-1.993.117L7 16v-5a1 1 0 0 1 1-1Zm3-1a1 1 0 0 1 .984.821 5.82 5.82 0 0 1 .623-.313c.667-.285 1.666-.442 2.568-.159.473.15.948.43 1.3.907.315.425.485.942.519 1.523L17 12v4a1 1 0 0 1-1.993.117L15 16v-4c0-.33-.08-.484-.132-.555a.548.548 0 0 0-.293-.188c-.348-.11-.849-.052-1.182.09-.5.214-.958.55-1.27.861L12 12.34V16a1 1 0 0 1-1.993.117L10 16v-6a1 1 0 0 1 1-1ZM8 7a1 1 0 1 1 0 2 1 1 0 0 1 0-2Z"/>
</svg>
