<svg xmlns="http://www.w3.org/2000/svg" width="24" height="24" fill="none" viewBox="0 0 24 24">
  <path fill="currentColor" fill-rule="evenodd" d="m8.393 12.356 5.718-3.493a.984.984 0 0 1 1.026 1.68l-4.996 3.052 4.18 4.181a1.575 1.575 0 0 0 2.59-.568l3.533-9.593a1.371 1.371 0 0 0-1.286-1.848h-.138a1.48 1.48 0 0 0-.391.053L4.15 9.715a.928.928 0 0 0 .06 1.805l4.182.836Zm-4.568 1.095 4.235.847 4.87 4.87a3.544 3.544 0 0 0 5.827-1.282l3.535-9.592a3.34 3.34 0 0 0-3.136-4.497h-.136c-.305 0-.61.04-.903.12L3.639 7.814a2.897 2.897 0 0 0 .186 5.636Z" clip-rule="evenodd"/>
</svg>
