<svg xmlns="http://www.w3.org/2000/svg" viewBox="0 0 512 512">
  <rect width="512" height="512" fill="#F1F0FF" rx="256"/>
  <path fill="#0C0B1D" d="M104.948 274.576c0-14.336 2.816-27.051 8.448-38.144 5.803-11.093 13.653-19.627 23.552-25.6 9.899-5.973 20.907-8.96 33.024-8.96 9.216 0 18.005 2.048 26.368 6.144 8.363 3.925 15.019 9.216 19.968 15.872V156.56h36.352V346h-36.352v-20.992c-4.437 6.997-10.667 12.629-18.688 16.896-8.021 4.267-17.323 6.4-27.904 6.4-11.947 0-22.869-3.072-32.768-9.216-9.899-6.144-17.749-14.763-23.552-25.856-5.632-11.264-8.448-24.149-8.448-38.656Zm111.616.512c0-8.704-1.707-16.128-5.12-22.272-3.413-6.315-8.021-11.093-13.824-14.336-5.803-3.413-12.032-5.12-18.688-5.12-6.656 0-12.8 1.621-18.432 4.864-5.632 3.243-10.24 8.021-13.824 14.336-3.413 6.144-5.12 13.483-5.12 22.016 0 8.533 1.707 16.043 5.12 22.528 3.584 6.315 8.192 11.179 13.824 14.592 5.803 3.413 11.947 5.12 18.432 5.12 6.656 0 12.885-1.621 18.688-4.864 5.803-3.413 10.411-8.192 13.824-14.336 3.413-6.315 5.12-13.824 5.12-22.528Zm130.492 73.216c-11.605 0-22.016-2.048-31.232-6.144-9.216-4.267-16.555-9.984-22.016-17.152-5.291-7.168-8.192-15.104-8.704-23.808H321.2c.683 5.461 3.328 9.984 7.936 13.568 4.779 3.584 10.667 5.376 17.664 5.376 6.827 0 12.117-1.365 15.872-4.096 3.925-2.731 5.888-6.229 5.888-10.496 0-4.608-2.389-8.021-7.168-10.24-4.608-2.389-12.032-4.949-22.272-7.68-10.581-2.56-19.285-5.205-26.112-7.936-6.656-2.731-12.459-6.912-17.408-12.544-4.779-5.632-7.168-13.227-7.168-22.784 0-7.851 2.219-15.019 6.656-21.504 4.608-6.485 11.093-11.605 19.456-15.36 8.533-3.755 18.517-5.632 29.952-5.632 16.896 0 30.379 4.267 40.448 12.8 10.069 8.363 15.616 19.712 16.64 34.048H367.28c-.512-5.632-2.901-10.069-7.168-13.312-4.096-3.413-9.643-5.12-16.64-5.12-6.485 0-11.52 1.195-15.104 3.584-3.413 2.389-5.12 5.717-5.12 9.984 0 4.779 2.389 8.448 7.168 11.008 4.779 2.389 12.203 4.864 22.272 7.424 10.24 2.56 18.688 5.205 25.344 7.936 6.656 2.731 12.373 6.997 17.152 12.8 4.949 5.632 7.509 13.141 7.68 22.528 0 8.192-2.304 15.531-6.912 22.016-4.437 6.485-10.923 11.605-19.456 15.36-8.363 3.584-18.176 5.376-29.44 5.376Z"/>
</svg>
